<svg xmlns="http://www.w3.org/2000/svg" width="1200" height="760" viewBox="0 0 1200 760">
  <rect width="100%" height="100%" fill="white"/>
  <rect x="44" y="40" width="1112" height="680" rx="32" fill="#ffffff" stroke="#d1d5db" stroke-width="2"/>
  <text x="90" y="105" font-family="Inter, ui-sans-serif, system-ui, -apple-system, Segoe UI, sans-serif" font-size="40" font-weight="850" fill="#111827">128k active MTP VRAM smoke</text>
  <text x="90" y="148" font-family="Inter, ui-sans-serif, system-ui, -apple-system, Segoe UI, sans-serif" font-size="23" fill="#4b5563">27B MTP GGUF · ctx=131072 · q4_0 V · active draft-mtp · no main/spec K CLI override on ROCm</text>
  <g font-family="Inter, ui-sans-serif, system-ui, -apple-system, Segoe UI, sans-serif">
    <line x1="130.0" y1="235" x2="130.0" y2="500" stroke="#e5e7eb" stroke-width="1"/><line x1="256.7" y1="235" x2="256.7" y2="500" stroke="#e5e7eb" stroke-width="1"/><line x1="383.3" y1="235" x2="383.3" y2="500" stroke="#e5e7eb" stroke-width="1"/><line x1="510.0" y1="235" x2="510.0" y2="500" stroke="#e5e7eb" stroke-width="1"/><line x1="636.7" y1="235" x2="636.7" y2="500" stroke="#e5e7eb" stroke-width="1"/><line x1="763.3" y1="235" x2="763.3" y2="500" stroke="#e5e7eb" stroke-width="1"/><line x1="890.0" y1="235" x2="890.0" y2="500" stroke="#e5e7eb" stroke-width="1"/>
    
    <text x="130" y="234" font-size="27" font-weight="700" fill="#111827">ROCm packed16/I32 route</text>
    <text x="430" y="234" font-size="22" fill="#4b5563">main K omitted · main V=q4_0 · spec V=q4_0</text>
    <rect x="130" y="250" width="760" height="82" rx="18" fill="#f3f4f6"/>
    <rect x="130" y="250" width="689.1" height="82" rx="18" fill="#2563eb"/>
    <text x="797.0666666666667" y="303" text-anchor="end" font-size="31" font-weight="800" fill="white">21.760 GiB</text>
    
    
    <text x="130" y="374" font-size="27" font-weight="700" fill="#111827">Vulkan comparison</text>
    <text x="430" y="374" font-size="22" fill="#4b5563">main K=f16 · main V=q4_0 · spec V=q4_0</text>
    <rect x="130" y="390" width="760" height="82" rx="18" fill="#f3f4f6"/>
    <rect x="130" y="390" width="734.0" height="82" rx="18" fill="#0f766e"/>
    <text x="842.0333333333333" y="443" text-anchor="end" font-size="31" font-weight="800" fill="white">23.180 GiB</text>
    
    <rect x="90" y="560" width="480" height="86" rx="22" fill="#ecfdf5" stroke="#86efac"/>
    <text x="118" y="594" font-size="22" font-weight="750" fill="#166534">Measured saving</text>
    <text x="118" y="630" font-size="33" font-weight="850" fill="#15803d">1.420 GiB less VRAM</text>
    <rect x="610" y="560" width="500" height="86" rx="22" fill="#eff6ff" stroke="#93c5fd"/>
    <text x="638" y="594" font-size="22" font-weight="750" fill="#1e40af">Route evidence</text>
    <text x="638" y="630" font-size="25" font-weight="800" fill="#1d4ed8">rocm_packed16_dot4_mmq · PDMQ probe PASSED</text>
    <text x="90" y="690" font-size="18" fill="#4b5563">ROCm: 21.760 GiB used / 21.079 GiB over idle. Vulkan: 23.180 GiB used / 22.500 GiB over idle. Artifact: .harness/tmp/vram-128k-active-mtp-q4v-20260531-112745</text>
  </g>
</svg>
